<?xml version="1.0" encoding="utf-8"?>
<!-- Generator: Adobe Illustrator 19.2.1, SVG Export Plug-In . SVG Version: 6.00 Build 0)  -->
<svg version="1.1" id="layer" xmlns="http://www.w3.org/2000/svg" xmlns:xlink="http://www.w3.org/1999/xlink" x="0px" y="0px"
	 viewBox="0 0 652 652" style="enable-background:new 0 0 652 652;" xml:space="preserve">
<style type="text/css">
	.st0{fill:#803B00;}
</style>
<g>
	<path class="st0" d="M105.9,479.2c-0.6,0-2.9-0.2-4.1-0.4c-1-0.2-1.1-0.3-1.4-0.7c-0.3-0.4-0.5-1.4-0.6-2.8
		c-0.5-3.9-0.5-11.7-0.5-21.1v-17.3c0-15.4,0-18.1,0.2-21.1c0.1-1.6,0.4-2.6,0.6-2.9c0.2-0.3,0.3-0.5,1.3-0.7
		c1.2-0.2,1.6-0.2,2.1-0.2c0.9,0,2.8-0.6,2.9-2.7c0.1-0.9-0.7-2.3-1.6-2.6c-0.8-0.4-1.5-0.4-2.1-0.4c-3,0-9.3,0.3-9.6,0.3
		c-0.2,0-1.8-0.1-4-0.2c-2.2-0.1-4.9-0.2-7.1-0.1c-0.7,0-1.3,0-2.1,0.4c-0.9,0.3-1.7,1.7-1.6,2.6c0.1,2.2,2.1,2.7,3,2.7
		c0.7,0,2.5,0.1,2.8,0.2c2.5,0.9,2.1,0.4,2.6,3.6c0.2,3,0.2,5.8,0.2,21.1v0.5l-38.6,0v-0.5c0-15.4,0-18.1,0.2-21.1
		c0.1-1.6,0.3-2.6,0.6-2.9c0.2-0.3,0.3-0.5,1.3-0.7c1.2-0.2,1.6-0.3,2.1-0.3c0.9,0,2.8-0.6,3-2.7c0.1-0.9-0.7-2.3-1.6-2.6
		c-0.8-0.4-1.4-0.4-2.1-0.4c-3,0-9.3,0.3-9.6,0.3c-0.2,0-1.8-0.1-4-0.2c-2.2-0.1-4.9-0.2-7.1-0.1c-0.7,0-1.3,0-2.1,0.4
		c-0.9,0.3-1.7,1.7-1.6,2.6c0.1,2.2,2,2.7,3,2.7c0.7,0,2.5,0.1,2.8,0.2c2.6,0.9,2.1,0.4,2.6,3.6c0.2,3,0.2,5.8,0.2,21.1v17.3
		c0,9.4,0,17.3-0.5,21.1c-0.2,1.3-0.4,2.5-0.7,3c-0.3,0.6-0.3,0.5-0.5,0.5c-0.8,0.2-2,0.4-2.5,0.4c-0.6,0-1.4,0.2-2.1,0.7
		c-0.7,0.6-0.9,1.4-0.9,2c-0.1,0.9,0.7,2.2,1.6,2.6c0.8,0.4,1.5,0.4,2.1,0.4c3,0,9.3-0.3,9.7-0.3c0.3,0,6.7,0.3,12.1,0.3
		c0.7,0,1.4-0.1,2.2-0.5c0.8-0.3,1.6-1.5,1.5-2.5c0-0.6-0.2-1.4-0.9-2c-0.6-0.6-1.4-0.7-2.1-0.7c-0.6,0-2.9-0.2-4.1-0.4
		c-1-0.2-1.1-0.3-1.4-0.7c-0.3-0.4-0.5-1.4-0.6-2.8c-0.5-3.9-0.5-11.7-0.5-21.2l0-8.7h38.6v8.7c0,9.4,0,17.3-0.5,21.1
		c-0.2,1.3-0.4,2.5-0.7,3c-0.3,0.6-0.3,0.5-0.5,0.5c-0.8,0.2-1.9,0.4-2.5,0.4c-0.6,0-1.4,0.2-2.1,0.7c-0.6,0.6-0.9,1.4-0.9,2
		c-0.1,0.9,0.7,2.2,1.6,2.6c0.8,0.4,1.5,0.4,2.1,0.4c3,0,9.3-0.3,9.6-0.3c0.3,0,6.7,0.3,12.1,0.3c0.7,0,1.4-0.1,2.2-0.5
		c0.8-0.3,1.6-1.5,1.5-2.5c0-0.6-0.3-1.5-0.9-2C107.3,479.3,106.6,479.1,105.9,479.2 M146.8,469.8c-0.8-0.1-2,0.6-2.3,1.3
		c-0.4,0.6-0.4,1.1-0.5,1.6c-0.6,3.1-1,3.5-2.3,4.1c-1.3,0.6-4.7,0.7-6.7,0.7c-3.8,0.1-5.7-0.4-6.1-0.8c-0.4-0.2-0.8-0.9-0.9-3.6
		c0-0.5,0-1.9,0-3.5c0-3.4,0-8,0-9.8v-5.3c2.8,0.1,8,0.2,9.4,0.4c2.5,0.5,1.9,0.6,2.3,1.2c0.2,0.8,0.2,1.2,0.2,2
		c0,0.5,0.1,1.1,0.5,1.7c0.4,0.7,1.4,1.2,2.2,1.1c1.7,0,2.6-1.6,2.6-2.2c0.1-0.7,0.1-1.1,0.1-1.5c0-0.3,0.2-3.4,0.3-4.8
		c0.2-2.6,0.6-3.4,0.6-4.6c0-0.5,0-1-0.5-1.7c-0.5-0.7-1.5-1.1-2.1-1.1c-2.2,0.4-2.2,1.3-2.8,1.8c0,0,0,0-0.3,0.1
		c-0.4,0.1-1,0.2-1.9,0.3c-1.2,0.1-7.5,0.1-10.6,0.1l0-19c2.8,0,8.1,0.1,8.9,0.2c4.2,0.7,3.4,0.8,3.8,1.4c0.2,0.3,0.3,1.6,0.3,2
		c0,0.5,0,1.1,0.4,1.8c0.4,0.8,1.5,1.5,2.4,1.4c1.4,0,2.1-1,2.3-1.4c0.3-0.5,0.3-0.8,0.4-1.1c0.2-1.4,0.4-4.8,0.4-5.4
		c0.2-2.1,0.6-2.5,0.6-3.9c0-0.4,0-0.7-0.2-1.3c-0.1-0.5-1-1.6-2.3-1.6c-0.8,0-1.3,0.3-1.5,0.4l0,0c-0.4,0.1-1.7,0.3-3.1,0.3
		c-1.6,0.1-17.4,0.1-17.9,0.1c0,0-1.4-0.1-3.1-0.2c-1.8,0-3.9-0.1-5.8-0.1c-0.6,0-1.1,0-1.9,0.3c-0.9,0.3-1.7,1.6-1.5,2.4
		c0.1,2.1,2,2.6,2.8,2.6c0.5,0,2,0.1,2.2,0.2c1.9,0.7,1.3,0,1.8,2.5c0.1,2.4,0.2,4.6,0.1,16.9h0v13.8c0,7.5,0,13.8-0.4,16.8
		c-0.1,1.1-0.3,1.9-0.5,2.3c0,0.1-0.1,0.2-0.1,0.2c-0.6,0.1-1.5,0.3-1.9,0.3c-0.6,0-1.3,0.1-1.9,0.7c-0.6,0.5-0.9,1.3-0.8,1.9
		c-0.1,0.8,0.7,2.2,1.5,2.4c0.8,0.3,1.3,0.3,1.9,0.3c1.3,0,3.1-0.1,4.7-0.2c0.8,0,1.5,0,2.1,0c0.6,0,0.9,0,0.9,0c1.1,0,3,0.1,6,0.2
		c3,0.1,7.3,0.2,13,0.2h0.4c1.5,0,2.5,0.1,3.9-0.4c1.5-0.6,2.2-2.1,2.4-3.2c0.5-2.1,1.1-7.1,1.1-8.2c0-0.3,0-0.7-0.1-1.3
		C149.3,471.2,148.2,469.7,146.8,469.8 M213.2,479.7c-0.7-0.3-1.2-0.3-1.5-0.3c-0.6,0-1.6-0.1-2.5-0.4c-1-0.4-2.6-0.7-5.4-7.5
		c-4.8-11.9-17.2-44.4-18.3-47.4c-0.5-1.3-0.8-2-1.2-2.7c-0.3-0.7-1.5-1.6-2.5-1.5c-1.1-0.1-2.3,1-2.6,1.6c-0.4,0.7-0.7,1.5-1.2,2.8
		l-17.9,48.9c-1.5,3.9-2.6,5.7-4.9,6c-0.5,0.1-1.6,0.2-2,0.2c-0.5,0-1,0.1-1.6,0.4c-0.6,0.3-1.3,1.3-1.2,2.2c-0.1,1,0.9,2.3,1.7,2.5
		c0.7,0.3,1.3,0.3,1.9,0.3c3.7,0,8.2-0.2,8.9-0.2c0.7,0,4.1,0.2,6.1,0.2c0.5,0,1,0,1.8-0.3c0.7-0.3,1.6-1.4,1.5-2.4
		c0.1-0.7-0.5-1.8-1.2-2.2c-0.7-0.4-1.3-0.4-1.7-0.4h-0.8c-0.3,0-0.7-0.1-0.8-0.2h0c0-1,0.3-2.7,1-4.5l4.5-13.2h15l6.9,18.2
		c-0.5,0.4-1.1,1.2-1.1,2.1c-0.1,0.8,0.6,1.8,1.2,2.1c1.5,0.8,2.1,0.5,3.3,0.6c5.5,0.2,11.3,0.2,12.5,0.2c0.6,0,1.1,0,1.8-0.3
		c0.6-0.1,1.9-1,1.9-2.5C214.7,481.3,214,480,213.2,479.7 M175.7,454.4l4.8-14.7l5.2,14.7H175.7z M253.3,469.5
		c-0.8-0.1-2,0.6-2.3,1.3c-0.4,0.7-0.4,1.2-0.5,1.6c-0.1,1-0.9,2.8-1.6,3.7c-0.9,1.2-3.6,1.6-7.9,1.6c-6.1,0-7.5-0.7-7.9-1.2
		c0,0-0.1-0.1-0.3-0.8c-0.6-2-0.8-7.1-0.8-15.7h0v-14c0-12.3,0-14.5,0.2-16.9c0.1-1.3,0.3-2,0.4-2.1c0.1-0.1,0.1-0.2,0.9-0.4
		c0.8-0.1,1.9-0.2,2.2-0.2c0.8,0,2.7-0.6,2.8-2.6c0.1-0.8-0.7-2.2-1.5-2.4c-0.8-0.3-1.3-0.3-1.9-0.3c-2.4,0-8.3,0.2-8.5,0.2
		c-0.2,0-5.3-0.2-8.9-0.2c-0.6,0-1.1,0-1.9,0.3c-0.8,0.3-1.7,1.6-1.5,2.4c0.1,2.1,2,2.6,2.8,2.6c0.5,0,2,0.1,2.1,0.2
		c1.9,0.7,1.3,0,1.8,2.5c0.1,2.4,0.1,4.6,0.1,16.9v13.8c0,7.5,0,13.8-0.4,16.8c-0.1,1.1-0.3,1.9-0.5,2.3c0,0.1-0.1,0.2-0.1,0.2
		c-0.6,0.1-1.5,0.3-1.9,0.3c-0.6,0-1.3,0.2-1.9,0.7c-0.6,0.5-0.9,1.3-0.9,1.9c-0.1,0.8,0.7,2.2,1.5,2.4c0.8,0.3,1.3,0.3,1.9,0.3
		c1.3,0,3-0.1,4.6-0.2c0.8,0,1.5,0,2.1,0c0.6,0,1,0,1,0c2.2,0,4.6,0.1,7.9,0.2c3.3,0.1,7.5,0.2,13.2,0.2c2.2,0,3.4,0,4.7-0.6
		c1.6-0.7,2.1-2.2,2.3-3.1c0.7-2.7,1.3-7.2,1.3-8.5c0-0.5,0-0.9-0.2-1.7C255.6,470.4,254.1,469.3,253.3,469.5 M296.1,420.4
		c-0.9,0-1.4,0.2-2.6,0.4c-1.1,0.1-2.8,0.4-5.2,0.4h-29.5c-0.8,0-3.8-0.2-6-0.4c-1.9-0.1-1.4-0.6-3.7-0.9c-1.4,0.1-1.7,0.8-2,1
		c-0.6,0.9-0.7,1.6-0.9,1.9c-0.2,1.1-1.8,7.2-1.8,8.9c0,0.5,0.1,1,0.4,1.6c0.3,0.6,1.3,1.3,2.2,1.3c1.3,0.1,2.7-1.4,2.8-2.2
		c0.2-0.5,0.3-0.7,1.1-2c0.6-1,1.3-1.4,6.3-1.5l9.4-0.1v31.1c0,7.5,0,13.8-0.4,16.8c-0.1,1-0.3,1.9-0.5,2.3
		c-0.1,0.1-0.1,0.2-0.1,0.2c-0.6,0.1-1.5,0.3-1.9,0.3c-0.6,0-1.3,0.1-2,0.7c-0.6,0.6-0.8,1.4-0.8,1.9c-0.1,0.8,0.7,2.2,1.5,2.4
		c0.8,0.3,1.3,0.3,1.9,0.3c2.4,0,7.5-0.2,7.7-0.2c0.2,0,5.3,0.2,9.7,0.2c0.6,0,1.2-0.1,2-0.4c0.7-0.3,1.5-1.4,1.5-2.4
		c0-0.6-0.2-1.4-0.8-1.9c-0.6-0.6-1.4-0.7-1.9-0.7c-0.5,0-2.3-0.2-3.3-0.3c-0.7-0.1-0.6-0.2-0.8-0.4c-0.2-0.3-0.4-1-0.4-2
		c-0.4-3.1-0.4-9.3-0.4-16.8h0v-31.1l7.7,0.1c3.6,0.1,5.7,0.6,6.6,1.1c0.9,0.5,0.8,0.7,1,1.4l0.1,0.8c0.1,0.6,0.1,1.1,0.4,1.8
		c0.3,0.9,1.8,1.6,2.4,1.4c0.9,0.1,1.9-0.6,2.2-1.3c0.4-0.7,0.5-1.3,0.5-1.9c0-0.7,0.2-6.2,0.2-8.7c0-0.3,0-0.6-0.1-1.2
		C298.5,421.7,297.3,420.3,296.1,420.4 M363.2,479.4c-0.5,0-2.3-0.2-3.2-0.3c-0.7-0.2-0.6-0.2-0.8-0.4c-0.2-0.2-0.4-1-0.5-2
		c-0.4-3.1-0.4-9.3-0.4-16.8v-13.8c0-12.3,0-14.5,0.2-16.9c0.1-1.3,0.3-2,0.4-2.1c0.1-0.2,0-0.2,0.7-0.4c0.9-0.1,1.3-0.2,1.6-0.2
		c0.8,0,2.6-0.5,2.8-2.6c0.1-0.8-0.7-2.2-1.5-2.4c-0.8-0.3-1.3-0.3-1.9-0.3c-2.4,0-7.5,0.2-7.7,0.2c-0.2,0-5.3-0.2-8.9-0.2
		c-0.6,0-1.1,0-1.9,0.3c-0.8,0.3-1.7,1.6-1.5,2.4c0.1,2.1,2,2.6,2.8,2.6c0.5,0,1.9,0.1,2.1,0.2c1.9,0.7,1.3,0,1.8,2.5
		c0.2,2.4,0.2,4.6,0.2,16.8h-30c0-12.3,0-14.4,0.1-16.8c0.1-1.3,0.3-2,0.4-2.1c0.1-0.2,0.1-0.2,0.8-0.4c0.9-0.2,1.2-0.2,1.6-0.2
		c0.8,0,2.7-0.5,2.8-2.6c0.1-0.8-0.7-2.2-1.5-2.4c-0.8-0.3-1.3-0.3-1.9-0.3c-2.4,0-7.5,0.2-7.7,0.2c-0.2,0-5.3-0.2-8.9-0.2
		c-0.6,0-1.1,0-1.9,0.3c-0.8,0.3-1.6,1.6-1.5,2.4c0.1,2,2,2.6,2.8,2.6c0.5,0,2,0.1,2.2,0.2c1.9,0.7,1.3,0,1.8,2.5
		c0.2,2.4,0.2,4.6,0.2,16.9v13.8c0,7.5,0,13.8-0.4,16.8c-0.1,1.1-0.3,1.9-0.5,2.3c0,0.1-0.1,0.2-0.1,0.2c-0.6,0.1-1.5,0.3-1.9,0.3
		c-0.6,0-1.3,0.1-1.9,0.7c-0.6,0.6-0.9,1.4-0.8,1.9c-0.1,0.8,0.7,2.2,1.5,2.4c0.8,0.3,1.3,0.3,1.9,0.3c2.4,0,7.5-0.2,7.7-0.2
		c0.1,0,1.4,0.1,3.3,0.1c1.9,0.1,4.2,0.1,6.4,0.1c0.6,0,1.2,0,2-0.4c0.7-0.3,1.5-1.4,1.5-2.4c0-0.6-0.2-1.4-0.8-1.9
		c-0.6-0.6-1.4-0.7-1.9-0.7c-0.5,0-2.3-0.2-3.3-0.3c-0.7-0.2-0.6-0.2-0.8-0.4c-0.2-0.2-0.4-1-0.5-2c-0.4-3.1-0.4-9.3-0.4-16.8v-6.6
		h30v6.6c0,7.5,0,13.8-0.4,16.8c-0.1,1-0.3,1.9-0.5,2.3c-0.1,0.1-0.1,0.2-0.1,0.2c-0.6,0.1-1.5,0.3-1.9,0.3c-0.6,0-1.3,0.1-1.9,0.7
		c-0.6,0.6-0.9,1.4-0.8,1.9c-0.1,0.9,0.7,2.2,1.5,2.4c0.8,0.3,1.3,0.3,1.9,0.3c2.4,0,7.5-0.2,7.7-0.2c0.1,0,1.4,0.1,3.3,0.1
		c1.9,0.1,4.2,0.1,6.4,0.1c0.6,0,1.2,0,2-0.4c0.7-0.3,1.5-1.4,1.5-2.4c0-0.6-0.2-1.4-0.9-1.9C364.6,479.5,363.8,479.3,363.2,479.4"
		/>
</g>
<rect x="29.5" y="377.8" class="st0" width="572.2" height="4.4"/>
<g>
	<path class="st0" d="M441.7,462.7c-0.8-0.1-2.1,0.5-2.5,1.3c-0.4,0.7-0.5,1.3-0.6,1.9c-0.2,1.4-1.6,5.7-3.1,7.2
		c-3.2,3.3-8.3,4.3-15.6,4.2c-19.8,0-33.3-16.1-33.4-33.8c0-9.8,1.6-17.8,8.2-24.1c3.1-3,8.4-6.6,21.1-6.6c8.2,0,15.5,2.7,18.3,5.1
		c1.9,1.6,3.4,5.1,3.4,8.4c0,0.8,0,1.4,0.2,2.2c0.1,0.9,1.6,2.2,2.7,2c1.1,0.1,2.5-1,2.6-1.8c0.3-0.8,0.3-1.4,0.4-2.3
		c0.1-1.7,0.1-7,0.3-10.1c0.2-3.5,0.5-4.4,0.5-5.6c0-0.5-0.1-1.5-0.9-2.2c-0.8-0.7-1.6-0.9-2.4-1c-3-0.2-6.1-0.8-9.8-1.5
		c-5-0.9-10.6-1.2-14.7-1.2c-15.6,0-25.3,4.8-31.5,11.1c-9.3,9.3-11.6,21.4-11.7,28.4c0,9.7,2.5,21.6,12.6,30.7
		c8.1,7.4,18.7,11.2,33.8,11.2h0.1c6.5,0,14-0.6,18.5-2.4c1.8-0.5,3.5-2.3,3.8-4.2c1.1-3.9,2.2-11.9,2.3-13.2c0-0.6-0.1-1.2-0.3-1.9
		C444,463.8,443.1,462.7,441.7,462.7 M506.6,479.7c-1.3-0.6-2.2-0.5-2.8-0.7c-1-0.3-2.6-0.7-5.5-7.5c-4.8-11.9-17.1-44.4-18.3-47.5
		c-0.5-1.3-0.8-2-1.2-2.7c-0.3-0.7-1.5-1.6-2.5-1.5c-1.2-0.1-2.3,1-2.6,1.6c-0.4,0.7-0.7,1.5-1.2,2.8l-17.9,48.9
		c-1.5,3.9-2.6,5.7-4.9,6c-0.5,0.1-1.6,0.2-2,0.2c-0.5,0-1,0.1-1.6,0.4c-0.6,0.3-1.3,1.3-1.2,2.2c-0.1,1,0.9,2.3,1.7,2.5
		c0.8,0.3,1.3,0.3,1.9,0.3c3.8,0,8.2-0.2,8.9-0.2c0.7,0,4.1,0.2,6.1,0.2c0.5,0,1.1,0,1.8-0.4c0.7-0.3,1.6-1.4,1.5-2.4
		c0.1-0.7-0.4-1.8-1.2-2.2c-0.7-0.4-1.3-0.4-1.7-0.4h-0.8c-0.3,0-0.7-0.1-0.8-0.2c0-1,0.3-2.7,1-4.5l4.4-13.1h15l6.9,18.2
		c-0.5,0.4-1.1,1.2-1.1,2.1c-0.1,0.8,0.6,1.8,1.1,2.1c1.6,0.8,2.1,0.5,3.3,0.6c5.5,0.2,10.4,0.2,11.6,0.2c0.6,0,1.1,0,1.9-0.4
		c0.9-0.3,1.6-1.6,1.5-2.4C508,480.7,507,479.9,506.6,479.7 M470.2,454.4l4.8-14.7l5.2,14.7H470.2z M602.1,471.8
		c0-0.6-1.1-2.1-2.5-2c-0.8-0.1-2,0.7-2.3,1.3c-0.3,0.6-0.4,1.1-0.5,1.6c-0.6,3.1-1,3.5-2.3,4.1c-1.3,0.6-4.7,0.7-6.7,0.7
		c-3.8,0.1-5.7-0.4-6.1-0.8c-0.3-0.2-0.7-0.9-0.9-3.6c0-0.4,0-1.9,0-3.5c0-3.4,0-8,0-9.8v-5.3c2.8,0,8,0.2,9.4,0.4
		c2.5,0.5,1.9,0.6,2.3,1.2c0.2,0.8,0.2,1.2,0.2,2c0,0.5,0.1,1.1,0.5,1.8c0.4,0.7,1.4,1.2,2.2,1.1c1.7,0,2.6-1.7,2.6-2.2
		c0.2-0.7,0.1-1.2,0.1-1.5c0-0.3,0.2-3.4,0.3-4.8c0.2-2.6,0.6-3.4,0.6-4.6c0-0.5,0-1-0.5-1.7c-0.5-0.7-1.5-1.1-2-1.1
		c-2.2,0.4-2.2,1.3-2.8,1.8c0,0,0,0-0.3,0.1c-0.4,0.1-1,0.2-1.9,0.3c-1.2,0.1-7.5,0.1-10.7,0.1l0-19c2.8,0,8.1,0.1,8.8,0.2
		c4.2,0.7,3.4,0.8,3.9,1.4c0.2,0.4,0.3,1.7,0.3,2c0,0.5,0,1,0.4,1.8c0.4,0.8,1.6,1.5,2.4,1.4c1.4,0,2.1-1,2.3-1.4
		c0.3-0.5,0.3-0.9,0.4-1.2c0.2-1.3,0.3-4.7,0.4-5.4c0.2-2.1,0.6-2.5,0.6-3.9c0-0.3,0-0.7-0.2-1.3c-0.1-0.5-1-1.6-2.3-1.6
		c-0.8,0-1.3,0.3-1.5,0.4v0c-0.5,0.1-1.7,0.3-3.1,0.3c-1.6,0.1-17.4,0.1-17.9,0.1c0,0-1.4-0.1-3.1-0.2c-1.8,0-3.9-0.1-5.7-0.1
		c-0.6,0-1.1,0-1.9,0.3c-0.8,0.3-1.6,1.6-1.5,2.4c0.1,2,2,2.6,2.8,2.6c0.5,0,2,0.1,2.2,0.2c1.9,0.7,1.3,0,1.8,2.5
		c0.1,2.4,0.1,4.6,0.1,16.9v13.8c0,7.6,0,13.8-0.4,16.8c-0.2,1.7-1,2.2-2,2.6c-0.4,0.2-3.3,0.1-3.8,0c-1.1-0.2-1.5-0.4-5.9-5
		c-4.2-4.4-9.1-10.9-15-18.5c6.3-6.3,8.8-12.4,8.8-18.4c0-6.4-3.9-10.7-6.3-12.5c-4.8-3.4-10.6-3.9-15.7-3.9c-2.5,0-8.6,0.2-9.3,0.2
		c-0.2,0-5.3-0.2-8.9-0.2c-0.6,0-1.1,0-1.9,0.3c-0.8,0.3-1.6,1.6-1.5,2.4c0.1,2.1,2,2.6,2.8,2.6c0.6,0,2,0.1,2.2,0.2
		c1.9,0.7,1.3,0,1.7,2.5c0.1,2.4,0.2,4.6,0.1,16.9h0v13.8c0,7.5,0,13.8-0.4,16.8c-0.1,1.1-0.3,1.9-0.5,2.3c0,0.1-0.1,0.2-0.1,0.2
		c-0.6,0.2-1.5,0.3-1.9,0.3c-0.6,0-1.3,0.2-1.9,0.7c-0.6,0.5-0.9,1.3-0.8,1.9c-0.1,0.8,0.7,2.2,1.5,2.4c0.8,0.3,1.3,0.3,1.9,0.3
		c1.2,0,3.1-0.1,4.6-0.1c1.5-0.1,2.8-0.1,2.8-0.1c0.1,0,1.4,0.1,3.3,0.1c1.9,0.1,4.2,0.1,6.4,0.1c0.6,0,1.2-0.1,2-0.4
		c0.7-0.3,1.5-1.4,1.4-2.4c0-0.6-0.2-1.4-0.8-1.9c-0.6-0.6-1.4-0.7-2-0.7c-0.5,0-2.2-0.2-3.2-0.3c-0.7-0.1-0.6-0.2-0.8-0.4
		c-0.2-0.2-0.4-1-0.5-2c-0.4-3.1-0.4-9.3-0.4-16.9v-0.3l7.7,0.1c1.4,1.9,5,7,8.3,11.3c4.5,5.9,7.2,9.9,11.3,12.2
		c1.6,0.9,3,1.8,6.6,1.8c0.3,0,0.6,0,0.9,0h3.4c0.8,0,4,0,4.6,0c1.3,0,2.5-0.1,4.1-0.2c0.8,0,1.5,0,2.1,0c0.6,0,0.9,0,0.9,0
		c1.1,0,3,0.1,6,0.2c3.1,0.1,7.5,0.2,13.4,0.2c1.5,0,2.5,0.1,3.9-0.4c1.5-0.6,2.2-2.1,2.4-3.2c0.5-2.1,1.1-7.1,1.1-8.2
		C602.3,472.9,602.3,472.5,602.1,471.8 M536.9,451.7c-1.2,0.9-3,1.1-4.7,1.1c-2.5,0.1-5.5-0.4-6.7-0.8V428c0.8-0.1,2.3-0.2,3.8-0.2
		c7.2,0.2,11.2,4.5,11.5,13.6C540.7,446.9,538.8,450.4,536.9,451.7"/>
	<path class="st0" d="M624.5,187.3c-1.7,1.7-3.7,2.5-6.1,2.5c-2.4,0-4.4-0.8-6.1-2.5c-1.7-1.7-2.5-3.7-2.5-6.1
		c0-2.4,0.8-4.4,2.5-6.1c1.7-1.7,3.7-2.5,6.1-2.5c2.4,0,4.4,0.8,6.1,2.5c1.7,1.7,2.5,3.7,2.5,6.1C627,183.6,626.2,185.6,624.5,187.3
		 M613.1,176c-1.4,1.4-2.2,3.2-2.2,5.2c0,2.1,0.7,3.8,2.1,5.3c1.5,1.4,3.2,2.2,5.2,2.2c2.1,0,3.8-0.7,5.2-2.2
		c1.4-1.5,2.2-3.2,2.2-5.3c0-2.1-0.7-3.8-2.2-5.2c-1.4-1.5-3.2-2.2-5.2-2.2C616.3,173.8,614.6,174.5,613.1,176 M618.2,176.5
		c1.2,0,2,0.1,2.6,0.3c1,0.4,1.5,1.2,1.5,2.4c0,0.8-0.3,1.5-0.9,1.9c-0.3,0.2-0.8,0.4-1.4,0.5c0.7,0.1,1.3,0.4,1.6,0.9
		c0.4,0.5,0.5,1,0.5,1.5v0.7c0,0.2,0,0.5,0,0.7c0,0.3,0,0.4,0.1,0.5l0.1,0.1h-1.6c0,0,0-0.1,0-0.1c0,0,0-0.1,0-0.1l0-0.3v-0.7
		c0-1.1-0.3-1.8-0.9-2.2c-0.3-0.2-1-0.3-1.9-0.3h-1.3v3.7h-1.7v-9.5H618.2z M620,177.9c-0.4-0.2-1.1-0.4-2-0.4h-1.4v3.4h1.5
		c0.7,0,1.2-0.1,1.6-0.2c0.6-0.3,1-0.8,1-1.5C620.6,178.6,620.4,178.2,620,177.9"/>
	<path class="st0" d="M293.1,165.7c-32.5,0-56.2,13.6-71.4,32.1c-15.2,18.4-22.2,41.5-22.2,60.8c0,21.3,6.7,44.5,21.7,62.6
		c14.9,18.1,38.2,30.7,70.4,30.7h0.1c28.5,0,52.3-11,68.8-28.6c16.6-17.7,25.9-41.9,25.9-68.3c0-27.5-10-49.9-26.7-65.4
		C343,174.1,319.6,165.7,293.1,165.7 M335.4,323.5c-12.5,10.7-27.7,13.6-37.5,13.6c-39.5-0.1-70.3-32.6-70.4-84.9
		c0-24.6,7-42.6,18.3-54.5c11.3-11.9,27.2-18,45.7-18c34.5,0.1,66.6,27.8,66.8,81.7C358.3,294.1,347.9,312.8,335.4,323.5
		 M448.7,244.7l-6.4-5.1c-10.7-8.7-17.5-15-21.5-20.4c-4-5.4-5.3-9.7-5.3-15.8c0.1-15.1,10.6-23.4,25.2-23.6
		c20.2,0.1,24.9,8.8,26,10.6c1,1.6,2.5,8.1,2.6,10.3c0.2,1.1,0.2,2,0.8,3.3c0.5,1.3,2.5,2.6,4.1,2.5c1,0,2.2-0.5,2.9-1.2
		c1.9-2.3,1.6-4.1,1.7-7.1c0-15.6,0.9-22.6,0.9-24.3c0-0.9-0.2-2.6-1.7-3.7c-1.4-1-2.5-0.9-3.7-1c-1.5,0-3.1-0.2-7.4-1.1
		c-5.9-1.4-12.8-2.4-22-2.4c-15.2,0-27.8,4.4-36.7,12.2c-8.9,7.8-13.9,19.1-13.9,32.2c-0.1,16.5,6.3,32.1,31,52.2l10.3,8.5
		c19.7,16.4,25.2,24.2,25.3,39c-0.2,13.3-9.4,27.4-29.8,27.5c-7.3,0-14.4-1.5-19.9-4.9c-5.5-3.4-9.5-8.4-11.1-16.1
		c-0.6-2.9-0.6-5.9-0.6-7.9c0-1,0.1-2-0.7-3.5c-0.8-1.6-2.9-2.2-4-2.1c-1.7-0.1-3.6,1.4-4,2.6c-0.6,1.3-0.7,2.4-0.9,3.8
		c-0.2,3.6-1.2,13-1.2,24.6c0,3.1,0,5.1,0.7,7.2c0.8,2.2,2.7,3.5,4.4,4.3l1.4-2.7l-1.3,2.7c10,4.9,21,6.5,32.1,6.5
		c12.8,0,25.9-2.8,36.4-10.2c16.9-12.1,20.8-30.5,20.8-40.6C483.5,281.8,476.1,266.1,448.7,244.7 M599.5,169.2
		c-0.6-1.1-2.1-2.1-3.6-2c-2.9,0.3-3.5,1.5-4.2,1.5c-1.1,0.4-4.9,0.6-9.3,0.8c-5,0.2-51.8,0.2-56.3,0.2c-0.9,0-15.6-0.7-26-0.7
		c-1.4,0-2.7,0.1-4.1,0.7c-1.5,0.5-2.8,2.6-2.6,4.2c0,1.5,0.9,3,1.9,3.6c1,0.6,2,0.8,2.9,0.8c1.8,0,5.8,0.3,7.1,0.6
		c3.5,0.8,5,1.7,5.9,3c0.9,1.3,1.5,3.6,1.7,7.3c0.5,7.2,0.5,13.6,0.5,49.4V279c0,22,0,40.2-1.1,49.5c-0.4,3.2-1,5.9-1.7,7.6
		c-0.8,1.7-1.3,2.1-2.5,2.4c-2,0.5-4.7,0.9-6.3,0.9c-1.2,0-2.5,0.3-3.5,1.2c-1,0.9-1.4,2.2-1.4,3.2c-0.2,1.5,1.2,3.6,2.6,4.2
		c1.4,0.6,2.6,0.7,4.1,0.7c7,0,21.6-0.7,22.5-0.7c0.9,0,15.6,0.7,28.2,0.7c1.5,0,2.9-0.2,4.2-0.8c1.4-0.6,2.6-2.4,2.5-4
		c0-1-0.4-2.3-1.4-3.2c-1-0.9-2.3-1.2-3.5-1.2c-1.7,0-6.9-0.4-9.9-0.9c-2.8-0.4-3.7-1.2-4.6-2.7c-0.9-1.5-1.4-4-1.8-7.2
		c-1.1-9.3-1.1-27.5-1.1-49.5v-18.5c6.6,0,28.1,0.1,32.9,0.7c6,0.8,8.7,4.2,9.4,6.3c0.7,2.1,1,5.1,1.2,7.4c0,0.9,0.2,2,0.9,3
		c0.7,1.2,2.3,2,3.7,1.9c1.1,0,2.5-0.5,3.2-1.4c1.9-2.6,1.3-4.4,1.5-6c0-1.3,0.5-10.7,0.9-15.1c0.7-7.6,1.8-10.7,1.9-13.2
		c0-0.8,0-1.6-0.6-2.8c-0.5-1.3-2.4-2.2-3.6-2.1c-1.8,0-2.9,1.1-3.5,1.7c-0.6,0.7-1,1.3-1.4,1.8l-0.1,0.1l-0.1,0.1
		c-0.7,1-1.3,1.4-2.5,1.9c-1.2,0.4-3.1,0.7-5.8,1c-3,0.2-6.2,0.2-10.1,0.2l-28,0.2l0-61.9l34.3,0.7c8,0.1,12.3,4.1,12.9,5.6
		c1.2,2.4,1.8,6.3,1.8,7.5c0,1.1,0.1,2.2,0.7,3.4c0.5,1.2,2.3,2.5,3.9,2.4c1.9,0,3.4-1.4,3.9-2.3c0.6-1,0.8-1.9,0.9-2.6
		c0.5-3.3,1-13.3,1.2-15.5c0.6-6.3,1.7-8.2,1.9-11.1C600.3,171.3,600.2,170.2,599.5,169.2"/>
	<path class="st0" d="M77.9,176.6c3.3-0.6,4.5-2.1,4.1-4.5l-0.9-4.9l-2.8,0.5l0.9,5c0.2,1.1-0.2,1.7-1.6,2c-1.4,0.3-2-0.2-2.2-1.3
		l-0.9-5l-2.8,0.5l0.9,4.9C73,176.2,74.6,177.2,77.9,176.6 M71,177.7l-0.3-1.9l-6,1.1l-0.3-1.6l5.3-1l-0.3-1.7l-5.3,1l-0.3-1.5
		l5.8-1.1l-0.3-1.7l-8.7,1.6l1.5,8.4L71,177.7z M166.7,311.7l1.2,9.4l2.5-1.6l-0.3-1.7l3.2-2.1l1.4,0.9l2.5-1.6l-8.1-4.9
		L166.7,311.7z M169.2,312.9l2.6,1.8l-2.1,1.4L169.2,312.9L169.2,312.9z M54.7,180.6c3.3-0.6,5.1-2.4,4.6-5.2
		c-0.5-2.6-2.7-3.8-6.1-3.2l-4.7,0.8l1.5,8.4L54.7,180.6z M53,174.2c1.9-0.3,3.1,0.2,3.4,1.7c0.3,1.7-0.4,2.5-2.6,2.9l-1.3,0.2
		l-0.8-4.6L53,174.2z M139.2,176l-6-1.1l0.3-1.6l5.3,0.9l0.3-1.7l-5.3-0.9l0.3-1.5l5.8,1l0.3-1.7l-8.7-1.5l-1.5,8.4l8.8,1.6
		L139.2,176z M87.3,171c1.6,0.1,3.2-0.1,3.3,0.7c0.1,0.6-0.7,1-1.6,1.2c-1.2,0.2-2.1,0.1-2.3-0.9l-2.8,0.5c0.4,2.1,2.8,2.6,5.3,2.1
		c2.4-0.4,4.6-1.5,4.2-3.7c-0.3-1.5-2-1.8-3.6-1.8c-1.6-0.1-3.2,0.1-3.4-0.5c-0.1-0.5,0.6-0.8,1.2-1c0.9-0.2,1.8-0.1,1.9,0.7
		l2.8-0.5c-0.3-1.9-2.7-2.3-4.8-1.9c-2,0.4-4.3,1.5-4,3.3C84,170.7,85.7,171,87.3,171 M157.1,181.2c2.4,0.4,4.9,0.2,5.2-2
		c0.3-1.5-1.2-2.3-2.7-3c-1.5-0.6-3.1-1-2.9-1.7c0.1-0.6,0.9-0.6,1.5-0.5c0.9,0.1,1.8,0.6,1.6,1.3l2.8,0.5c0.3-1.9-1.7-3.1-3.9-3.5
		c-2-0.4-4.6-0.1-4.9,1.8c-0.3,1.5,1.3,2.4,2.8,3c1.5,0.6,3,1,2.9,1.8c-0.1,0.6-1,0.7-1.9,0.5c-1.2-0.2-1.9-0.7-1.8-1.7l-2.8-0.5
		C152.5,179.6,154.6,180.8,157.1,181.2 M145.7,179.2c3.3,0.6,5-0.4,5.4-2.8l0.9-4.9l-2.8-0.5l-0.9,5c-0.2,1.1-0.8,1.5-2.2,1.3
		c-1.4-0.2-1.8-0.9-1.6-2l0.9-5l-2.8-0.5l-0.9,4.9C141.2,177.2,142.5,178.6,145.7,179.2 M57.8,322.6l1-1.5l-7.4-4.8l-4.6,7.1
		l7.5,4.9l1-1.6l-5.1-3.3L51,322l4.5,2.9l0.9-1.4l-4.5-2.9l0.8-1.3L57.8,322.6z M119.2,167.8L119.2,167.8l1.2,6.8l2.2,0.4l3.4-6l0,0
		l-1.1,6.3l2.7,0.5l1.5-8.4l-4.2-0.7l-2.9,5.2l0,0L121,166l-4.2-0.7l-1.5,8.4l2.7,0.5L119.2,167.8z M152.3,199.3
		c-0.1-0.3-0.4-0.1-0.7-0.2c-1.2,0.8-2.7,1.1-3.7,2.3c-2.6,0.9-14.7,6.7-17.5,8.6c-1,1-3,0.7-3.2,2.4c0.2,0.2,0.5,0.3,0.8,0.3
		C130.2,211.8,151.8,200.8,152.3,199.3 M73.6,198.2c-0.2-0.1-0.8-0.3-0.7,0.2c1.1,1.7,2.8,2.2,4.1,3.5c0.6,0,1,0.4,1.3,0.9
		c1.4,0.7,2.6,1.7,3.9,2.4c0.9,0.1,1,1.5,2,1.1l0-0.5c-1.8-1.9-4.3-3-6.4-4.6C76.4,200.6,75.1,199.1,73.6,198.2 M181.2,273.4
		c0-7.2-1.9-15.1-10.6-16.2c-3.9-5.1-8.3-11.5-10.9-22c-1.7-6.4-1.4-11.9,3.3-15.4c7,9,15.3,2,15.3-4.7c0-10.3-16.9-16.3-19.1-30.9
		c-16,4.7-33,3.4-53.6-10.2c-20.6,13.6-37.6,14.8-53.6,10.2c-2.2,14.7-19.1,20.6-19.1,31c0,6.7,8.3,13.7,15.3,4.7
		c5.2,4,5.1,9,3.3,15.4c-3,10.9-7,16.8-10.9,22C32,258.4,30.1,265.8,30,273c-0.2,9.7,2.8,23.7,16.6,35.9c16.9,15,40,14.9,59.1,42.8
		c19.8-28,42.6-27.8,59.4-42.8C178.7,296.9,181.2,282.7,181.2,273.4 M164.7,214c0,0-2.5,1.4-3.8,2.9c-1.3,1.5-3.1,5.7-3.1,5.7
		l-0.8,0.3c0,0,0.6-4.5,2.9-6.7c2.5-2.3,5.1-2.6,5.1-2.6L164.7,214z M167.4,219.6c-0.9-0.3-1.1-1.1-1.6-1.7c0.6-0.9,1.1-3.1,2.6-1.9
		c0,0.6-0.7,1.1-0.3,1.8c0.5,0.2,0.2,0.9,0.3,1.4C168.3,219.7,167.7,219.8,167.4,219.6 M166.1,203.2c0,0,4.4,3.4,7,6.8
		c3.7,4.8,1.6,12.1-3.9,10.2l-0.3-1c0,0,4.5-2.1,2.1-5.2c-2.4-3-8.4-5.8-12.8,0.3c-5.6,7.8-7.1,22.3,5.4,41.6c0,0,1,1.2,0.3,1.8
		c-0.7,0.5-1.2,0.4-2.3-0.9c-1.1-1.2-9.4-12.1-12.1-22.5c-2.9-11.3,1.4-25.5,14.2-28.3c0,0-2.9-2.5-4.5-4.9
		c-1.6-2.4-3.1-6.2-3.1-6.2l1-0.7C157.2,194.1,161.5,202.5,166.1,203.2 M136.5,314.2l-3.7,1.7c0,0-1.9-1.3-3.4-2.1
		c-1.5-0.8-3.4-0.9-3.4-0.9l0.5-2.8c1.4-1.8,4.7-1.3,4.7-1.3c1.2,0.2,1.5-0.7,0.5-1.5c-1.1-0.9-2.3-1.4-2.3-1.4s0.3-4.4,4.3-7
		c4-2.6,7.9-1.4,10.3-0.3c0,0-4.3,0.9-6.4,5.3C135.6,308.2,136.5,314.2,136.5,314.2 M54.2,283.7c-1.3,5.3,0.5,13.2,3.7,20.5
		c-2.3-2-4.6-4.4-5.7-6.4c-3.5-6.7-2.7-15,0-19.1c3.8-5.5,8.1-5.2,9.9-1.4c1.8,3.8-3,6.8-4.2,5.1c-1.2-1.7,0.4-3.1,0.4-3.1
		S55.5,278.4,54.2,283.7 M59.3,285.1c3.6,0.2,2.2,3,2.4,5.2c0.1,2.2,2,4.2,2,4.2s-1.4-4.3,0.6-6.5c2-2.2,6.4-3.3,6.4-3.3
		s-1.1-2.5-4.9-2c0,0,0.9-2.2-1.4-6c-2.3-3.8-5.4-4.3-5.4-4.3s0.9-2.8-0.7-4.4c0,0,2.7-2.2,5.1-1.1c2.4,1.1,3.1,3.7,3.1,3.7
		s0.7-0.5,3.2-0.6c2.5-0.1,5.3,1.2,5.3,1.2s-0.3-1.9-2.8-3.3c-2.5-1.4-4.5-0.3-4.5-0.3s-0.5-2.6-3.4-3.6c-3.9-1.4-7.4,1.2-7.4,1.2
		l-5-1.6c0,0,7.8-13.9,9.2-17.8l7.2-3.5l0.8,1.2c0,0-0.1,0.9-0.1,1.9c0,0.9,3.1,6.7,3.1,7.2c0,0-5.8,6-7,7.2
		c-1.3,1.2-0.7,2.5,0.8,0.9c1.5-1.5,7.1-6.4,7.1-6.4c3.1,3,8.4,8.7,11.2,10.3c0,0-4.3,8.6-5,10c-0.7,1.5,0.2,2,0.8,1.1
		c0.6-0.9,4.7-8.4,6.1-10.1c3.1,0.5,5.7,1.7,8.3,5.4c0,0-3,2.2-6.6,4.4c-3.6,2.2-5.8,2.9-7.9,4.3c0,0-2.4-5-8-5.1
		c-5.6-0.2-4.8,3.3-4.8,3.3s2.2-0.3,5-0.4c2.8-0.1,5,1.9,5,1.9s-3,0.4-4.1,2c0,0,4.8,0.4,6.7,3.7c1.9,3.3-2.4,9.4-2.4,9.4
		s4.6,0.9,5.4,3.9c0.8,3-3.2,6-3.2,6s0.8-5.3-4.2-7.8c-5-2.5-9.9,1.9-9.9,1.9s5.4-2.5,8.2,0.7c2.8,3.2,0.1,10.3,0.1,10.3
		s1.8-2.6,5.4-2.5c3.6,0.2,6.6,2.6,6.6,2.6s3.6-2.9,6.2-1.5c2.6,1.3,3.7,2.6,3.7,2.6l0,3.1l1.6,0.1c0,0,0,2.4-1.6,4
		c-1.6,1.7-6.2,4.1-6.2,4.1s-7.4-4.6-12.4-6.8c-5-2.2-9.9-4.8-9.9-4.8s-4.9-4.8-8.1-13.8C57.7,292.2,55.7,285,59.3,285.1
		 M95.7,213.2v0.8h-18c0,0-17.1-3.1-18.3-3.7c-1.6-1.6-4.9-3.9-7.5-5c1.9-1.5,4.6-6.5,5.8-10.8c6.7,1.1,12.2,2.3,20.8,0.8
		C80.2,197.3,95.7,213.2,95.7,213.2 M80.6,194.8c3.5-1.3,7.7-2.3,9.6-3.3c0.9,0.7,5.5,8.2,5.5,8.2v11.6
		C95.7,211.3,81.4,195.8,80.6,194.8 M75.9,215.6v6.3c0,0-7.6,0-10.8-0.2c-0.4-1.6-0.4-3.1-1.9-5.8c-1-1.9-2-3-2.2-3.6
		C62.3,212.3,75.9,215.6,75.9,215.6 M65.3,223.2l10.3,0.2l0.2,0.4v4.9c0,0-7.7,2.5-9.1,3.1c-0.5-0.1-1.5,0.7-1.6,0
		C65.5,230.4,65.5,225.4,65.3,223.2 M64.7,234.3c2.9-1.8,6.5-2,9.7-3.2l1.4,0v3.6l3.2,0c0,0-4.3,2.6-5,2.5c-1.7-0.1-3.7,1-5,3.1
		c-1.2,0.8-5.9,2.7-7.1,3.1C63.3,240.1,64.6,234.9,64.7,234.3 M82.5,228.5V221h19.4v-16h7.5v16h19.4v7.5h-19.4v39l-7.5-5.8v-33.2
		H82.5z M134.1,286.3c-1.7,3.6-0.7,7.9-0.3,9.3c-0.7,0.4-1.4,0.9-2.1,1.6c-1.6,1.7-2.8,4.1-3.4,5.6c0,0-5.3-3.2-21.3-20.3
		c-2.8-3-11.5-14.7-16.4-17.5c-1.6-0.6-3.6-1.9-5.2-2.7c-0.6-0.3-3.5-2.3-4.9-3.3c-0.9-0.7-4.7-4.4-5.8-7c-0.9-1.4-1.9-2.7-3-4.9
		c-0.2-0.6-1.2-1.6-0.1-2c1.1-0.4,3.2,4,4.3,4.3c0.3-0.2,0.6-0.5,0.5-0.8c-0.5-0.8-5.3-5.3-4.3-6.1c0.5-0.4,1.1,0.1,1.8,0.9
		c1.2,1.3,2.4,2.7,3.5,3.9c0.3,0.5,0.8,0.4,0.9,0c-1-1.4-3.2-4-3.7-4.6c-0.4-0.6-2.5-2.3-1.5-3.1c1-0.8,2.3,1.3,3.1,2.3
		c1.2,1.4,3.1,3.7,3.8,3.3c-0.7-1.6-5.3-5-4-6c0.9-0.7,1.2,0.1,2,0.9c0.9,0.8,3.1,3.1,3.7,3.7c1.1,1.5,3.7,2.5,3.3,4.7
		c-1,1.3-3.3,2.5-3.6,4.1c0,0.7,0.6,1.2,1.2,1.4c1.5,0.9,3.3-1.3,4,1c-0.1,0.3-0.2,0.7,0.3,0.9c0.2,0.1,0.4-0.2,0.4-0.4
		c0.3-1.8-1.4-3.6,0.1-5c-0.3-1.2,0.5-2.7,0.2-4.3c0.2-0.8-0.4-2.6,0.6-3.3c0.5-0.3,1.5-0.1,1.7,1.4c0.2,1.5,0.9,5.9,2.6,7.1
		c1,1,1.6,1.4,2.4,3.6c0.8,2.1,0.3,5,0.2,5.5c0.8,1.1,2.2-0.1,3.1,0.8C106.1,267.4,125.3,281.4,134.1,286.3 M133.3,195.8
		c0,0,6.5,0.8,11.8,0.2c5.3-0.5,8.5-1.4,8.5-1.4s2,4.9,3,6.8c1,1.9,2.8,3.9,2.8,3.9l-6.6,4.2L136,214h-20.2v-1.3L133.3,195.8z
		 M115.8,210.9v-11.4c0,0,5.9-7,6.4-7.3c0.9,0.6,6.1,2.5,8.2,2.9C129.7,196.5,115.8,210.9,115.8,210.9 M134.7,234.6
		c-0.5-0.1,1.3,0,1.3,0v-4.9c0,0,9.7,1.9,11.2,3.3c0,0.7-0.8,0.7-1.3,0.5C143.1,232.3,135.7,238.3,134.7,234.6 M142.4,237.3
		c-1.8,0.5-2.5,1.2-3.8,2c-0.7-0.1-1.6,1.1-2.2,0.3c-0.1-1.1,1.3-1.2,1.4-2.3c1.1-0.8,2.3-1.2,3.8-1.6c0.7-0.3,1.4,0,1.7,0.4
		C143.4,236.5,142.9,237.1,142.4,237.3 M145.7,230.5c-1.2-0.6-9-3-9.6-3.1v-3.7c1.4-0.9,7.1-1.2,9.5-0.6
		C145.1,225.3,145.5,229,145.7,230.5 M147,217.9c-0.6,1.9-1.1,3.6-1.1,3.6s-9.6,0.5-9.9-0.6c0.1-1.3,0-3.1,0-4.6
		c1.2-1.1,13.7-5.5,15-4.7C150.6,212.3,147.9,215,147,217.9 M134,239.9c0.7,0.7-0.6,1-0.6,1.8c-0.1,1.4-1.8,2.3-1.3,4
		c-0.8,1.4,0.3,2.6-0.8,3.9c0.2,0.4,0,1,0.2,1.4c1.3-0.3,2.1-2.4,3.5-1c0.8-0.1,0.9-1,1.4-1.4c0.6-0.8-0.8-1.4,0.1-2.1
		c-0.1-0.4,0.2-0.6-0.2-1c-0.5,0.3-1-0.2-1.4-0.4c-0.4-0.5-0.6-1.5-0.2-2.1c1.3-1.7,6.3-3.9,8.1-4.9c1.8-1.1,2.9-1.5,3.7-1.7
		c0.5-0.1,1.1,0.1,1.1,0.5c-0.1,1.4-3.4,2.3-5.8,3.8c-0.9,0.8-2.4,0.9-3,2.1c0.3,1.1,1.4,0.4,2,0c1.1-0.8,2-1.3,3.2-2
		c1.3-0.7,3.5-2.4,4.1-1.2c0.6,1.2-3.2,2.8-4.9,4c-1.1,1-3.7,1.1-3.4,3.1c0.1,0.2,0.4,0.1,0.6,0.1c1.7-1.3,2.9-2,4.6-2.8
		c0.8-0.4,1.3-0.9,1.7,0c-1,3.9-6.3,3.3-7.9,7c-1,1.5-2.2,2.5-3.1,4.2c-1,1.2-2.3,2.4-4.2,2.4l-3.4,0.8c-0.8,0.3-2,1.2-2.7,2.3
		l-1.9,2.7c-0.2-2.4-0.3-5.6-0.1-7.7c0.8-0.8,2.5-9.2,2.8-9.8c0.8-2.6,3.8-3.5,5.5-5.1C132.6,240,132.8,239,134,239.9 M149.4,242.9
		c0,0,3.1,5.1,4.9,8c1.8,2.9,6.9,8.4,6.9,8.4s-1.6,4-1.2,5.3c0,0-3.5-0.4-4.9,1.6c-1.4,2-1.9,5.3-1.9,5.3s-3.2-0.2-4.9,1.5
		c-1.7,1.6-3,5.1-3,5.1s-5,0.6-9.7,5.8c-1-0.5-4.4-2.3-5.9-3.2l-2.2-1.3c0.1-1.1,0-2.6-0.1-3c-0.1-2.1-0.1-9.2-0.2-12.6
		c1.5,2.2,4.3,6.4,4.3,6.4c0.7,1,3.9,6.2,5,7.5c1.1,1.3,1.5,0.2,0.9-0.5c-0.6-0.6-8.9-15.4-8.9-15.4c-0.7-1.7-0.1-2,0.8-2
		c0,0,4.9-0.2,7-2.8c0,0,7.6,8.5,8.5,9.6c0.9,1.1,1.5-0.2,0.7-0.9c-0.7-0.7-8.2-9.6-8.2-9.6s2.6-4.7,4.4-5.8
		c1.7,1.1,4.3,3.8,5.6,4.7c1.3,0.9,1.1-0.3,0.4-0.7c-0.7-0.4-4.7-4.7-4.7-4.7S150,244.4,149.4,242.9 M126,278.5
		c-0.8-0.4-1.5-0.8-2-1.2c-0.1-4.1-0.2-6.5-0.2-9.4c0.9-0.7,1.5-1.3,1.8-2C126,272.6,125.8,276.5,126,278.5 M130.6,238
		c-0.4-0.4-2.2-2.1-3.6-3.4h5.2c0.2,0.4,0.6,1.4,0.9,2.3C132.4,237.2,131.5,237.7,130.6,238 M129.1,239.4c-0.7,0.7-2.6,2.3-3.2,2.7
		c-1-1.2-5.6-6.2-6.7-7.6h5.2C125,235.2,128.4,238.9,129.1,239.4 M124.4,243.3c0.3,0.8-0.1,1.7-0.4,2.4c-0.9,3.7-1.2,6-1.2,6
		l-7-12.3v-4.9h1.2C117,234.6,122.7,240.5,124.4,243.3 M119.8,257.6c0.7-0.6,1.6-1.1,1.6-1.1l0.3,2.9c0,4.6,0.1,8.5,0.1,12.9
		c-0.1,1.3,0,3.6,0,3.6l-2.1-1.3c0,0,0.1-1.7,0.2-3C120.2,267.9,119.7,261.3,119.8,257.6 M120.9,253c0.2,1.9-1.5,1.8-3,3
		c-0.4,0.2-1.8,1.2-2.1,0.9l0-12C116.7,245.2,120.2,251.7,120.9,253 M118.4,273.7c-0.6-0.4-2.6-1.7-2.6-1.7v-12.4
		c1-0.7,2-1.1,2.8-1.5C118.2,261.8,118.9,270.1,118.4,273.7 M127.5,306.4c0,0-1.6,0.8-2.4,1.9c-0.8,1.2-1.3,4.2-1.3,4.2
		s-5.1-1.1-8,2.8v-20.8c0,0,5.7,5.3,7.1,6.5l4.6,4.3C127.4,306.3,127.5,306.4,127.5,306.4 M103.5,319.1c0,0-1.5-0.6-2.6-0.9
		c-1.2-0.3-2.9,0.4-2.9,0.4c0.8-0.8,1.5-2.5,1.9-4.8h8.7c0,0-2.8,1.8-4.1,3C103.2,318.1,103.5,319.1,103.5,319.1 M97.9,311.7v-36.9
		l2.4,2.8v31.8H111v-19.9l2.4,3.1v19.1H97.9z M101.9,307.8V279l7.5,8.9v20H101.9z M91.7,302.7c0,0,2-3.2-0.7-8.2
		c-2.7-5-7.3-5.3-7.3-5.3s0-1.3-0.3-3.2c-0.3-1.9-2.4-3.4-2.4-3.4l14.7-9.6l0,27.6C95.7,300.7,93.3,300.8,91.7,302.7 M95.7,303.7
		l0,3.2c-0.7-0.1-1.6-0.7-2.1-1.3c-0.4-0.3-0.1-1-0.1-1.3C94,303.7,95,303.5,95.7,303.7 M85.5,297.1c-0.7-1.6-4.7-4.1-4.7-4.1
		s4.7-2.2,7.1,1.5c4.1,6.3-1.1,11.2-1.1,11.2C87.3,301.8,86.2,298.7,85.5,297.1 M94,249.1c0.5-1,0.9-1.8,1.8-2.7v5.4
		C95,251.2,93.9,250.2,94,249.1 M95.7,241.1c0,0-1.7,3.9-3,5.4c-1.6,0.1-1.3-1.4-1.6-2.8c0,0-1.5-6.2-5.1-0.6
		c-0.4,0.5-0.4,1.4-1.2,1.3c-0.5-0.4-1.4-1.3-1-1.9l3.1-2.8c1.5-2.4,5-5.2,5-5.2h3.9V241.1z M82.5,241.5c-1.6,0-4.6-3.8-4.2-4.1
		c1.1-0.8,4.5-2.7,4.5-2.7l6.8,0C87.8,236.5,83.8,240.4,82.5,241.5 M97.9,320.3c3.6-0.8,8,1.2,8,1.2s-1.9-2.1,0.5-4.5
		c2.3-2.3,7.9-0.2,8.5,2.9c0,0-5.3,1.2-7.5,3.5c-2.2,2.3-2.8,4.5-2.8,4.5s4-3.3,7.4-4.4c3.4-1.1,7.2,0.3,7.2,0.3s-4.3,3-7.2,6
		c-2.9,3-6.5,7.9-6.5,7.9s-2.2-3.8-5.7-7.3c-4.1-4.1-7.6-6.6-7.6-6.6S94.4,321.1,97.9,320.3 M117.5,320c-0.3-1.2-0.7-2.6-0.7-2.6
		s0.8-1,3.4-2.1c2.6-1,6.3-0.6,9.8,2.1c0,0-4.5,2.6-6.5,3.7C121.9,320.1,118.4,319.8,117.5,320 M141.9,302.9c2-1.9,3-2.2,4.6-2.3
		c0,0,2.1,1,3.4,3.6c0,0-0.6,2.6-1.9,4.1c-0.2,0.2-7.7,4.2-7.7,4.2C139.1,309.7,139.9,304.8,141.9,302.9 M149.4,299.7
		c0,0-0.1-2.3,1-3.1c-0.6,0.3-2.2,1.2-4,1.7c0,0-1.4-2.6,0.4-5.3c1.9-2.7,4.2-3.3,4.2-3.3s-2.1-0.5-4.2,0.6
		c-2.2,1.1-3.5,4.7-3.5,4.7s-5.1-1.7-9.4,0.5c-0.1-1.4,0-5.4,3.8-9.6c1.2-1,2.3-2,3.5-2.9c1.4-0.8,2.8-1.2,3.7-1.4
		c0.4,0.6,1.2,1.7,2.9,2.5c2.4,1.2,6.7,1.5,6.7,1.5s1.4,2.9,0.6,6.7c-0.8,3.8-3.1,9.9-3.1,9.9L149.4,299.7z M157,281.8
		c-1.9-4.7-6.5-4.3-4.5-1.6c0,0,2.2,0.8,1.7,2.6c-0.5,1.8-6.7,1.9-5.9-3.9c0.7-5.9,6.7-6.2,9.7-2.9c3,3.2,6.8,12.7,2.6,19.9
		c-3.5,6-4.3,6-6.8,8.3C156.6,298.7,158.9,286.4,157,281.8 M161.4,277.2c0,0,2.7-3.9,0.2-6.9c-2.4-3-5.6-0.5-3.8,1.5
		c0,0,0.8-2.2,2-0.4c1.2,1.8-1.9,4.1-3.6,1.6c-1.7-2.5,1.8-9.1,5.9-4.3c4.2,4.8,3.7,5.3,4.2,8.5c0.5,3.2-1.6,10.9-1.6,10.9
		C164.4,284.3,162.8,279,161.4,277.2 M116.9,184.4c4.9,1.8,13.3,4.7,20.5,4.8c7.2,0.2,15.4-0.6,19.5-1.8c1.3,0.8,0.1,2-0.5,2.9
		c-0.6,0.9-7.3,5-20.4,3.4c-13.2-1.6-16.7-4.4-17.8-5c-1.1-0.6-0.2-0.5-0.2-0.5l2.6-0.6l-4.3-2.8L116.9,184.4z M119.8,191.2
		l-4.8,6.3h-3.2l3-8.7L119.8,191.2z M106.9,184.7c3.2,2,5.9,3.1,5.9,3.1l-2.2,9.7h-3.8C106.8,197.5,106.3,185.3,106.9,184.7
		 M113.4,200.8v16.1h19.7v15.5h-19.7v38l-2.4-1.7V230h19.4v-10.6H111v-16h-10.6v16H80.9V230h19.4v30.6l-2.4-2v-26.4H78.7v-15.4H98
		v-16.2H113.4z M104.6,179.8c0,0,0.6-3.3,1-3.3v6.1l-2.8,1.6C102.8,184.2,104.6,180.9,104.6,179.8 M104.9,185
		c0,1.1,0.1,12.5,0.1,12.5h-2.3c0,0-2.7-8.1-3.1-10C101.1,186.9,103.1,185.7,104.9,185 M101.6,197.5h-5.6c0,0-0.5-0.6-0.5-1
		c-0.6-1.2-2.5-4.6-3.2-5.8c1.2-0.5,4.8-2,6.2-2.7C99.5,191.2,101.6,197.5,101.6,197.5 M56.7,187.6l0.8-0.1c10.7,3,25.4,2,38.3-4.9
		c1-0.5,1.4-0.4,1.8,0.5c0.3,0.9,0,1.8-1.8,2.9c-1.7,1.1-9,6.2-19.8,6.7c-10.8,0.5-15-0.1-19.5-3.1L56.7,187.6z M47.5,215.8
		c-0.6-0.5-0.2-1.5,1.2-1.5c1.4,0,2.8,0.1,5.1,2.6c2.3,2.5,4,5.8,2.5,9.8c-0.4,1.1-0.9,1.3-1-0.4c-0.1-1.7-0.3-3.3-1.4-5.3
		C51,215.9,48.1,216.4,47.5,215.8 M56.2,214.7c-8.2-8.6-19.5-2.3-15.2,2.5c0,0,3.6-1.1,4,0.6c0.7,3.3-5.6,5.2-7.7-0.5
		c-2.1-5.6,2.2-7.5,5.3-10c3.1-2.5,4.8-6.7,4.8-6.7l1.9,0.8l4.2-2c0,0-2.4,4.3-5.5,6.8c0,0,5.2,0.9,9.8,5.7c4.6,4.8,6.9,13,3.5,25.6
		c-2.8,10.3-7.5,17.2-9.1,19.3c-1.7,2.1-2.6-0.7-2.6-0.7C54.8,248.1,64.4,223.4,56.2,214.7 M43.1,215.6c-0.3,0.4-0.8,0.4-1.3,0.4
		c-0.2-0.2-0.3-0.6-0.1-0.8C42.3,214.6,43.1,214.9,43.1,215.6 M55.5,266.9c4.5,2.7-1.7,9.1-3.8,6.8c-2.1-2.3,0.9-3.8,0.9-3.8
		s-0.4-1.1-2.4,1c-2,2.1,0.6,5.2,0.6,5.2c-2.1,2.2-3.8,7.6-3.3,13.3c0,0-4-9.3-1-16.9C48,268.8,51,264.2,55.5,266.9 M162.1,305.6
		c-15.3,14-38.5,15.5-56.4,41.2C89.2,322,65.5,319.4,50,306.3c-11.7-9.9-19-24.6-15-40.8c1.8-7.4,12.9-6.1,12,1.1
		c-0.7,6.1-7.5,4.8-7.2,0.8c0.3-4,5.2-2.3,3.7,0.9c0,0,1.5,1.1,1.6-2.4c0.1-3.3-6.4-4.3-7.7,0.7c-0.8,3.3,1.1,5.8,1.1,5.8
		c0,6.3,1.6,20.6,14.6,31.9c15.1,13.3,38.8,15.9,52.5,38.5c15-23.7,39-26,53.3-38.9c18.9-17.1,13.6-34.4,13.6-34.4s1.7-0.9,0.6-4.1
		c-1.3-4.2-7.1-3.7-7.4-0.3c-0.2,1.7,1.3,2,1.3,2c-0.7-2.6,3.7-4,4,0.1c0.3,4-7.8,4.3-7.5-1.8c0.3-6.1,10.8-7.6,12.6-0.3
		C180.2,281.3,173.4,295.2,162.1,305.6 M42.9,273.8c-0.3,0.3-0.5,0.8-1,1c-0.7,0-1-0.6-1-1.2C41,272.1,43.5,272,42.9,273.8
		 M171,273.9c-0.4,0.5-1,0.7-1.5,0.7c-0.6-0.4-0.8-0.9-0.4-1.5c0.1-0.6,0.7-0.7,1.2-0.7C171.3,272.5,170.8,273.3,171,273.9
		 M62.2,200c-0.5-0.1-1.4-0.2-1.6,0.3c2.4,1,20.6,9.5,22.8,10.6c1,0.9,2.4,1.5,3.7,1.3c0.1-0.4-0.4-0.6-0.5-1
		c-1.7-0.5-2.6-1.3-4.3-2C80.8,208.3,63,200.6,62.2,200 M130.4,206.2c1.9-1.1,3.4-2.8,5.3-3.5c0.4-0.7,2-0.6,1.3-1.6l-1.1,0.7
		c-1.2-0.1-6.6,4.1-7.4,5.1C129.2,207.2,129.7,206.5,130.4,206.2 M155.2,319.3l2.9,4.4l0,0l-6.1-2.3l-2.5,1.6l4.6,7.1l2.3-1.5
		l-2.9-4.4l0,0l6.1,2.3l2.5-1.6l-4.6-7.1L155.2,319.3z M159.6,316.4l4.6,7.1l2.4-1.6l-4.6-7.1L159.6,316.4z M130.5,335.2
		c-2.9,1.9-3.5,4.6-2.1,6.7c1.3,2.1,4.1,2.6,7,0.7c2.9-1.9,3.5-4.6,2.1-6.7C136.1,333.8,133.4,333.2,130.5,335.2 M134.3,341
		c-1.6,1-2.8,0.3-3.5-0.7c-0.7-1.1-0.8-2.5,0.8-3.5c1.6-1,2.8-0.3,3.5,0.7C135.8,338.5,135.8,340,134.3,341 M59.1,323.6l2.8,1.8
		l-3.6,5.5l2.4,1.6l3.6-5.5l2.8,1.8l1-1.6l-7.9-5.1L59.1,323.6z M143.8,326.7l1.5,5.8l0,0l-4.7-3.7l-3.5,2.3l4.6,7.1l2.3-1.5
		l-3.5-5.4l0,0l5.5,4.1l1.8-1.2l-1.6-6.7l0,0l3.5,5.4l2.3-1.5l-4.6-7.1L143.8,326.7z"/>
</g>
</svg>
